<mxfile host="app.diagrams.net" agent="Mozilla/5.0 (Windows NT 10.0; Win64; x64) AppleWebKit/537.36 (KHTML, like Gecko) Chrome/140.0.0.0 Safari/537.36 Edg/140.0.0.0" version="28.2.5">
  <diagram name="PÃ¡gina-1" id="WTidMu6pZAAe1vuulXgR">
    <mxGraphModel dx="1477" dy="814" grid="1" gridSize="9" guides="1" tooltips="1" connect="1" arrows="1" fold="1" page="1" pageScale="1" pageWidth="827" pageHeight="1169" background="light-dark(#000000,#121212)" math="0" shadow="0">
      <root>
        <mxCell id="0" />
        <mxCell id="1" parent="0" />
        <mxCell id="buKtytDfIhO9UdU7Xj6q-86" value="" style="edgeStyle=elbowEdgeStyle;elbow=horizontal;endArrow=classic;html=1;curved=0;rounded=0;endSize=10;startSize=13;strokeColor=light-dark(#f8fafc, #a0bcd2);sourcePerimeterSpacing=9;jumpSize=18;labelBackgroundColor=none;fontColor=default;exitX=0.545;exitY=0.528;exitDx=0;exitDy=0;exitPerimeter=0;" edge="1" parent="1" source="buKtytDfIhO9UdU7Xj6q-68">
          <mxGeometry width="50" height="50" relative="1" as="geometry">
            <mxPoint x="432" y="130" as="sourcePoint" />
            <mxPoint x="468" y="202" as="targetPoint" />
            <Array as="points">
              <mxPoint x="468" y="85" />
              <mxPoint x="486" y="145.6" />
            </Array>
          </mxGeometry>
        </mxCell>
        <mxCell id="buKtytDfIhO9UdU7Xj6q-87" value="" style="edgeStyle=elbowEdgeStyle;elbow=horizontal;endArrow=classic;html=1;curved=0;rounded=0;endSize=10;startSize=13;strokeColor=light-dark(#f8fafc, #a0bcd2);sourcePerimeterSpacing=9;jumpSize=18;labelBackgroundColor=none;fontColor=default;exitX=0.388;exitY=0.687;exitDx=0;exitDy=0;exitPerimeter=0;" edge="1" parent="1" source="buKtytDfIhO9UdU7Xj6q-68">
          <mxGeometry width="50" height="50" relative="1" as="geometry">
            <mxPoint x="396" y="162" as="sourcePoint" />
            <mxPoint x="342" y="171" as="targetPoint" />
            <Array as="points">
              <mxPoint x="414" y="189" />
              <mxPoint x="432" y="117" />
              <mxPoint x="450" y="177.6" />
            </Array>
          </mxGeometry>
        </mxCell>
        <mxCell id="buKtytDfIhO9UdU7Xj6q-73" value="" style="edgeStyle=elbowEdgeStyle;elbow=horizontal;endArrow=classic;html=1;curved=0;rounded=0;endSize=10;startSize=13;strokeColor=#FFFFFF;sourcePerimeterSpacing=9;jumpSize=18;labelBackgroundColor=none;fontColor=default;" edge="1" parent="1">
          <mxGeometry width="50" height="50" relative="1" as="geometry">
            <mxPoint x="288" y="126" as="sourcePoint" />
            <mxPoint x="390" y="119" as="targetPoint" />
            <Array as="points">
              <mxPoint x="345" y="83" />
              <mxPoint x="345" y="110" />
            </Array>
          </mxGeometry>
        </mxCell>
        <mxCell id="buKtytDfIhO9UdU7Xj6q-74" value="" style="edgeStyle=elbowEdgeStyle;elbow=horizontal;endArrow=classic;html=1;curved=0;rounded=0;endSize=10;startSize=13;strokeColor=#FFFFFF;sourcePerimeterSpacing=9;jumpSize=18;exitX=0.3;exitY=0.66;exitDx=0;exitDy=0;exitPerimeter=0;labelBackgroundColor=none;fontColor=default;" edge="1" parent="1">
          <mxGeometry width="50" height="50" relative="1" as="geometry">
            <mxPoint x="279" y="135" as="sourcePoint" />
            <mxPoint x="333" y="72" as="targetPoint" />
            <Array as="points">
              <mxPoint x="288" y="36" />
              <mxPoint x="288" y="63" />
            </Array>
          </mxGeometry>
        </mxCell>
        <mxCell id="buKtytDfIhO9UdU7Xj6q-8" value="" style="sketch=0;points=[[0,0,0],[0.25,0,0],[0.5,0,0],[0.75,0,0],[1,0,0],[0,1,0],[0.25,1,0],[0.5,1,0],[0.75,1,0],[1,1,0],[0,0.25,0],[0,0.5,0],[0,0.75,0],[1,0.25,0],[1,0.5,0],[1,0.75,0]];outlineConnect=0;dashed=0;verticalLabelPosition=bottom;verticalAlign=top;align=center;html=1;fontSize=12;fontStyle=0;aspect=fixed;shape=mxgraph.aws4.resourceIcon;resIcon=mxgraph.aws4.rds;rounded=1;labelBackgroundColor=none;fillColor=#182E3E;strokeColor=#FFFFFF;fontColor=#FFFFFF;" vertex="1" parent="1">
          <mxGeometry x="610" y="414" width="40" height="40" as="geometry" />
        </mxCell>
        <mxCell id="buKtytDfIhO9UdU7Xj6q-33" value="Private subnet" style="points=[[0,0],[0.25,0],[0.5,0],[0.75,0],[1,0],[1,0.25],[1,0.5],[1,0.75],[1,1],[0.75,1],[0.5,1],[0.25,1],[0,1],[0,0.75],[0,0.5],[0,0.25]];outlineConnect=0;html=1;whiteSpace=wrap;fontSize=12;fontStyle=0;container=1;pointerEvents=0;collapsible=0;recursiveResize=0;shape=mxgraph.aws4.group;grIcon=mxgraph.aws4.group_security_group;grStroke=0;verticalAlign=top;align=left;spacingLeft=30;dashed=0;rounded=1;labelBackgroundColor=none;fillColor=#182E3E;strokeColor=#FFFFFF;fontColor=#FFFFFF;" vertex="1" parent="1">
          <mxGeometry x="150" y="388" width="180" height="131" as="geometry" />
        </mxCell>
        <mxCell id="buKtytDfIhO9UdU7Xj6q-1" value="" style="sketch=0;points=[[0,0,0],[0.25,0,0],[0.5,0,0],[0.75,0,0],[1,0,0],[0,1,0],[0.25,1,0],[0.5,1,0],[0.75,1,0],[1,1,0],[0,0.25,0],[0,0.5,0],[0,0.75,0],[1,0.25,0],[1,0.5,0],[1,0.75,0]];outlineConnect=0;dashed=0;verticalLabelPosition=bottom;verticalAlign=top;align=center;html=1;fontSize=12;fontStyle=0;aspect=fixed;shape=mxgraph.aws4.resourceIcon;resIcon=mxgraph.aws4.ec2;rounded=1;labelBackgroundColor=none;fillColor=#182E3E;strokeColor=#FFFFFF;fontColor=#FFFFFF;" vertex="1" parent="buKtytDfIhO9UdU7Xj6q-33">
          <mxGeometry x="60" y="41" width="60" height="60" as="geometry" />
        </mxCell>
        <mxCell id="buKtytDfIhO9UdU7Xj6q-51" value="EC2" style="text;strokeColor=none;align=center;fillColor=none;html=1;verticalAlign=middle;whiteSpace=wrap;rounded=0;labelBorderColor=none;labelBackgroundColor=none;fontColor=#FFFFFF;" vertex="1" parent="buKtytDfIhO9UdU7Xj6q-33">
          <mxGeometry x="60" y="101" width="60" height="30" as="geometry" />
        </mxCell>
        <mxCell id="buKtytDfIhO9UdU7Xj6q-35" value="Private subnet" style="points=[[0,0],[0.25,0],[0.5,0],[0.75,0],[1,0],[1,0.25],[1,0.5],[1,0.75],[1,1],[0.75,1],[0.5,1],[0.25,1],[0,1],[0,0.75],[0,0.5],[0,0.25]];outlineConnect=0;html=1;whiteSpace=wrap;fontSize=12;fontStyle=0;container=1;pointerEvents=0;collapsible=0;recursiveResize=0;shape=mxgraph.aws4.group;grIcon=mxgraph.aws4.group_security_group;grStroke=0;verticalAlign=top;align=left;spacingLeft=30;dashed=0;rounded=1;labelBackgroundColor=none;fillColor=#182E3E;strokeColor=#FFFFFF;fontColor=#FFFFFF;" vertex="1" parent="1">
          <mxGeometry x="390" y="387" width="183" height="132" as="geometry" />
        </mxCell>
        <mxCell id="buKtytDfIhO9UdU7Xj6q-36" value="" style="sketch=0;points=[[0,0,0],[0.25,0,0],[0.5,0,0],[0.75,0,0],[1,0,0],[0,1,0],[0.25,1,0],[0.5,1,0],[0.75,1,0],[1,1,0],[0,0.25,0],[0,0.5,0],[0,0.75,0],[1,0.25,0],[1,0.5,0],[1,0.75,0]];outlineConnect=0;dashed=0;verticalLabelPosition=bottom;verticalAlign=top;align=center;html=1;fontSize=12;fontStyle=0;aspect=fixed;shape=mxgraph.aws4.resourceIcon;resIcon=mxgraph.aws4.ec2;rounded=1;labelBackgroundColor=none;fillColor=#182E3E;strokeColor=#FFFFFF;fontColor=#FFFFFF;" vertex="1" parent="buKtytDfIhO9UdU7Xj6q-35">
          <mxGeometry x="60" y="41" width="60" height="60" as="geometry" />
        </mxCell>
        <mxCell id="buKtytDfIhO9UdU7Xj6q-37" value="" style="shape=flexArrow;endArrow=classic;html=1;rounded=1;labelBackgroundColor=none;fontColor=default;strokeColor=#FFFFFF;" edge="1" parent="buKtytDfIhO9UdU7Xj6q-35">
          <mxGeometry width="50" height="50" relative="1" as="geometry">
            <mxPoint x="140" y="51" as="sourcePoint" />
            <mxPoint x="210" y="51" as="targetPoint" />
          </mxGeometry>
        </mxCell>
        <mxCell id="buKtytDfIhO9UdU7Xj6q-50" value="EC2" style="text;strokeColor=none;align=center;fillColor=none;html=1;verticalAlign=middle;whiteSpace=wrap;rounded=0;labelBorderColor=none;labelBackgroundColor=none;fontColor=#FFFFFF;" vertex="1" parent="buKtytDfIhO9UdU7Xj6q-35">
          <mxGeometry x="60" y="100" width="60" height="30" as="geometry" />
        </mxCell>
        <mxCell id="buKtytDfIhO9UdU7Xj6q-38" value="Public subnet" style="points=[[0,0],[0.25,0],[0.5,0],[0.75,0],[1,0],[1,0.25],[1,0.5],[1,0.75],[1,1],[0.75,1],[0.5,1],[0.25,1],[0,1],[0,0.75],[0,0.5],[0,0.25]];outlineConnect=0;html=1;whiteSpace=wrap;fontSize=12;fontStyle=0;container=1;pointerEvents=0;collapsible=0;recursiveResize=0;shape=mxgraph.aws4.group;grIcon=mxgraph.aws4.group_security_group;grStroke=0;verticalAlign=top;align=left;spacingLeft=30;dashed=0;rounded=1;labelBackgroundColor=none;fillColor=#182E3E;strokeColor=#FFFFFF;fontColor=#FFFFFF;" vertex="1" parent="1">
          <mxGeometry x="150" y="219" width="180" height="150" as="geometry" />
        </mxCell>
        <mxCell id="buKtytDfIhO9UdU7Xj6q-39" value="Auto Scaling group" style="points=[[0,0],[0.25,0],[0.5,0],[0.75,0],[1,0],[1,0.25],[1,0.5],[1,0.75],[1,1],[0.75,1],[0.5,1],[0.25,1],[0,1],[0,0.75],[0,0.5],[0,0.25]];outlineConnect=0;html=1;whiteSpace=wrap;fontSize=12;fontStyle=0;container=1;pointerEvents=0;collapsible=0;recursiveResize=0;shape=mxgraph.aws4.groupCenter;grIcon=mxgraph.aws4.group_auto_scaling_group;grStroke=1;fillColor=none;verticalAlign=top;align=center;dashed=1;spacingTop=25;rounded=1;labelBackgroundColor=none;strokeColor=#FFFFFF;fontColor=#FFFFFF;" vertex="1" parent="buKtytDfIhO9UdU7Xj6q-38">
          <mxGeometry x="30" y="30" width="130" height="120" as="geometry" />
        </mxCell>
        <mxCell id="buKtytDfIhO9UdU7Xj6q-40" value="" style="sketch=0;points=[[0,0,0],[0.25,0,0],[0.5,0,0],[0.75,0,0],[1,0,0],[0,1,0],[0.25,1,0],[0.5,1,0],[0.75,1,0],[1,1,0],[0,0.25,0],[0,0.5,0],[0,0.75,0],[1,0.25,0],[1,0.5,0],[1,0.75,0]];outlineConnect=0;dashed=0;verticalLabelPosition=bottom;verticalAlign=top;align=center;html=1;fontSize=12;fontStyle=0;aspect=fixed;shape=mxgraph.aws4.resourceIcon;resIcon=mxgraph.aws4.ec2;rounded=1;labelBackgroundColor=none;fillColor=#182E3E;strokeColor=#FFFFFF;fontColor=#FFFFFF;" vertex="1" parent="buKtytDfIhO9UdU7Xj6q-39">
          <mxGeometry x="10" y="90" width="20" height="20" as="geometry" />
        </mxCell>
        <mxCell id="buKtytDfIhO9UdU7Xj6q-41" value="" style="sketch=0;points=[[0,0,0],[0.25,0,0],[0.5,0,0],[0.75,0,0],[1,0,0],[0,1,0],[0.25,1,0],[0.5,1,0],[0.75,1,0],[1,1,0],[0,0.25,0],[0,0.5,0],[0,0.75,0],[1,0.25,0],[1,0.5,0],[1,0.75,0]];outlineConnect=0;dashed=0;verticalLabelPosition=bottom;verticalAlign=top;align=center;html=1;fontSize=12;fontStyle=0;aspect=fixed;shape=mxgraph.aws4.resourceIcon;resIcon=mxgraph.aws4.ec2;rounded=1;labelBackgroundColor=none;fillColor=#182E3E;strokeColor=#FFFFFF;fontColor=#FFFFFF;" vertex="1" parent="buKtytDfIhO9UdU7Xj6q-39">
          <mxGeometry x="40" y="90" width="20" height="20" as="geometry" />
        </mxCell>
        <mxCell id="buKtytDfIhO9UdU7Xj6q-42" value="" style="sketch=0;points=[[0,0,0],[0.25,0,0],[0.5,0,0],[0.75,0,0],[1,0,0],[0,1,0],[0.25,1,0],[0.5,1,0],[0.75,1,0],[1,1,0],[0,0.25,0],[0,0.5,0],[0,0.75,0],[1,0.25,0],[1,0.5,0],[1,0.75,0]];outlineConnect=0;dashed=0;verticalLabelPosition=bottom;verticalAlign=top;align=center;html=1;fontSize=12;fontStyle=0;aspect=fixed;shape=mxgraph.aws4.resourceIcon;resIcon=mxgraph.aws4.ec2;rounded=1;labelBackgroundColor=none;fillColor=#182E3E;strokeColor=#FFFFFF;fontColor=#FFFFFF;" vertex="1" parent="buKtytDfIhO9UdU7Xj6q-39">
          <mxGeometry x="70" y="90" width="20" height="20" as="geometry" />
        </mxCell>
        <mxCell id="buKtytDfIhO9UdU7Xj6q-43" value="" style="sketch=0;points=[[0,0,0],[0.25,0,0],[0.5,0,0],[0.75,0,0],[1,0,0],[0,1,0],[0.25,1,0],[0.5,1,0],[0.75,1,0],[1,1,0],[0,0.25,0],[0,0.5,0],[0,0.75,0],[1,0.25,0],[1,0.5,0],[1,0.75,0]];outlineConnect=0;dashed=0;verticalLabelPosition=bottom;verticalAlign=top;align=center;html=1;fontSize=12;fontStyle=0;aspect=fixed;shape=mxgraph.aws4.resourceIcon;resIcon=mxgraph.aws4.ec2;rounded=1;labelBackgroundColor=none;fillColor=#182E3E;strokeColor=#FFFFFF;fontColor=#FFFFFF;" vertex="1" parent="buKtytDfIhO9UdU7Xj6q-39">
          <mxGeometry x="100" y="90" width="20" height="20" as="geometry" />
        </mxCell>
        <mxCell id="buKtytDfIhO9UdU7Xj6q-44" value="" style="endArrow=classic;startArrow=classic;html=1;rounded=1;labelBackgroundColor=none;fontColor=default;strokeColor=#FFFFFF;" edge="1" parent="buKtytDfIhO9UdU7Xj6q-39">
          <mxGeometry width="50" height="50" relative="1" as="geometry">
            <mxPoint x="7.5" y="70" as="sourcePoint" />
            <mxPoint x="122.5" y="70" as="targetPoint" />
          </mxGeometry>
        </mxCell>
        <mxCell id="buKtytDfIhO9UdU7Xj6q-52" value="RDS" style="text;strokeColor=none;align=center;fillColor=none;html=1;verticalAlign=middle;whiteSpace=wrap;rounded=0;fontColor=#FFFFFF;labelBackgroundColor=none;" vertex="1" parent="1">
          <mxGeometry x="600" y="460" width="60" height="30" as="geometry" />
        </mxCell>
        <mxCell id="buKtytDfIhO9UdU7Xj6q-48" value="Developer Laptop" style="text;strokeColor=none;align=center;fillColor=none;html=1;verticalAlign=middle;whiteSpace=wrap;rounded=0;fontColor=#FFFFFF;labelBackgroundColor=none;" vertex="1" parent="1">
          <mxGeometry x="70" y="270" width="60" height="30" as="geometry" />
        </mxCell>
        <mxCell id="buKtytDfIhO9UdU7Xj6q-62" value="" style="edgeStyle=elbowEdgeStyle;elbow=horizontal;endArrow=classic;html=1;curved=0;rounded=0;endSize=10;startSize=13;strokeColor=#FFFFFF;sourcePerimeterSpacing=9;jumpSize=18;exitX=0.3;exitY=0.66;exitDx=0;exitDy=0;exitPerimeter=0;labelBackgroundColor=none;fontColor=default;" edge="1" parent="1" source="buKtytDfIhO9UdU7Xj6q-45">
          <mxGeometry width="50" height="50" relative="1" as="geometry">
            <mxPoint x="75" y="230" as="sourcePoint" />
            <mxPoint x="144" y="180" as="targetPoint" />
            <Array as="points">
              <mxPoint x="99" y="144" />
              <mxPoint x="99" y="171" />
            </Array>
          </mxGeometry>
        </mxCell>
        <mxCell id="buKtytDfIhO9UdU7Xj6q-45" value="" style="shape=image;html=1;verticalAlign=top;verticalLabelPosition=bottom;labelBackgroundColor=none;imageAspect=0;aspect=fixed;image=https://icons.diagrams.net/icon-cache1/Business___Finance_glyph_V1-2601/576_Api_app_coding_developer_laptop_game_gaming_genres_programing-1091.svg;shadow=0;imageBackground=default;rounded=1;fontFamily=Garamond;fillColor=#182E3E;strokeColor=#FFFFFF;fontColor=#FFFFFF;" vertex="1" parent="1">
          <mxGeometry x="75" y="210" width="50" height="50" as="geometry" />
        </mxCell>
        <mxCell id="buKtytDfIhO9UdU7Xj6q-66" value="Public subnet" style="points=[[0,0],[0.25,0],[0.5,0],[0.75,0],[1,0],[1,0.25],[1,0.5],[1,0.75],[1,1],[0.75,1],[0.5,1],[0.25,1],[0,1],[0,0.75],[0,0.5],[0,0.25]];outlineConnect=0;html=1;whiteSpace=wrap;fontSize=12;fontStyle=0;container=1;pointerEvents=0;collapsible=0;recursiveResize=0;shape=mxgraph.aws4.group;grIcon=mxgraph.aws4.group_security_group;grStroke=0;strokeColor=#FFFFFF;fillColor=#182E3E;verticalAlign=top;align=left;spacingLeft=30;fontColor=#FFFFFF;dashed=0;labelBackgroundColor=none;" vertex="1" parent="1">
          <mxGeometry x="150" y="99" width="183" height="103" as="geometry" />
        </mxCell>
        <mxCell id="buKtytDfIhO9UdU7Xj6q-64" value="" style="sketch=0;points=[[0,0,0],[0.25,0,0],[0.5,0,0],[0.75,0,0],[1,0,0],[0,1,0],[0.25,1,0],[0.5,1,0],[0.75,1,0],[1,1,0],[0,0.25,0],[0,0.5,0],[0,0.75,0],[1,0.25,0],[1,0.5,0],[1,0.75,0]];outlineConnect=0;dashed=0;verticalLabelPosition=bottom;verticalAlign=top;align=center;html=1;fontSize=12;fontStyle=0;aspect=fixed;shape=mxgraph.aws4.resourceIcon;resIcon=mxgraph.aws4.ec2;rounded=1;labelBackgroundColor=none;fillColor=#182E3E;strokeColor=#FFFFFF;fontColor=#FFFFFF;" vertex="1" parent="buKtytDfIhO9UdU7Xj6q-66">
          <mxGeometry x="50" y="43" width="60" height="60" as="geometry" />
        </mxCell>
        <mxCell id="buKtytDfIhO9UdU7Xj6q-65" value="" style="sketch=0;points=[[0,0,0],[0.25,0,0],[0.5,0,0],[0.75,0,0],[1,0,0],[0,1,0],[0.25,1,0],[0.5,1,0],[0.75,1,0],[1,1,0],[0,0.25,0],[0,0.5,0],[0,0.75,0],[1,0.25,0],[1,0.5,0],[1,0.75,0]];outlineConnect=0;dashed=0;verticalLabelPosition=bottom;verticalAlign=top;align=center;html=1;fontSize=12;fontStyle=0;aspect=fixed;shape=mxgraph.aws4.resourceIcon;resIcon=mxgraph.aws4.ec2;rounded=1;labelBackgroundColor=none;fillColor=#182E3E;strokeColor=#FFFFFF;fontColor=#FFFFFF;" vertex="1" parent="buKtytDfIhO9UdU7Xj6q-66">
          <mxGeometry y="65" width="38" height="38" as="geometry" />
        </mxCell>
        <mxCell id="buKtytDfIhO9UdU7Xj6q-67" value="" style="outlineConnect=0;dashed=0;verticalLabelPosition=bottom;verticalAlign=top;align=center;html=1;shape=mxgraph.aws3.internet_3;fillColor=#182E3E;labelBackgroundColor=none;strokeColor=#FFFFFF;fontColor=#FFFFFF;" vertex="1" parent="1">
          <mxGeometry x="351" y="45" width="63" height="45" as="geometry" />
        </mxCell>
        <mxCell id="buKtytDfIhO9UdU7Xj6q-68" value="" style="points=[];aspect=fixed;html=1;align=center;shadow=0;dashed=0;fillColor=#FFFFFF;strokeColor=none;shape=mxgraph.alibaba_cloud.alb_application_load_balancer_01;labelBackgroundColor=none;fontColor=#FFFFFF;" vertex="1" parent="1">
          <mxGeometry x="384" y="108" width="58.01" height="49.2" as="geometry" />
        </mxCell>
        <mxCell id="buKtytDfIhO9UdU7Xj6q-76" value="" style="edgeStyle=elbowEdgeStyle;elbow=horizontal;endArrow=classic;html=1;curved=0;rounded=0;endSize=10;startSize=13;strokeColor=light-dark(#f8fafc, #a0bcd2);sourcePerimeterSpacing=9;jumpSize=18;labelBackgroundColor=none;fontColor=default;" edge="1" parent="1">
          <mxGeometry width="50" height="50" relative="1" as="geometry">
            <mxPoint x="423" y="72" as="sourcePoint" />
            <mxPoint x="441" y="117" as="targetPoint" />
            <Array as="points">
              <mxPoint x="466.5" y="29.4" />
              <mxPoint x="484.5" y="90" />
            </Array>
          </mxGeometry>
        </mxCell>
        <mxCell id="buKtytDfIhO9UdU7Xj6q-79" value="Public subnet" style="points=[[0,0],[0.25,0],[0.5,0],[0.75,0],[1,0],[1,0.25],[1,0.5],[1,0.75],[1,1],[0.75,1],[0.5,1],[0.25,1],[0,1],[0,0.75],[0,0.5],[0,0.25]];outlineConnect=0;html=1;whiteSpace=wrap;fontSize=12;fontStyle=0;container=1;pointerEvents=0;collapsible=0;recursiveResize=0;shape=mxgraph.aws4.group;grIcon=mxgraph.aws4.group_security_group;grStroke=0;verticalAlign=top;align=left;spacingLeft=30;dashed=0;rounded=1;labelBackgroundColor=none;fillColor=#182E3E;strokeColor=#FFFFFF;fontColor=#FFFFFF;" vertex="1" parent="1">
          <mxGeometry x="390" y="219" width="180" height="150" as="geometry" />
        </mxCell>
        <mxCell id="buKtytDfIhO9UdU7Xj6q-80" value="Auto Scaling group" style="points=[[0,0],[0.25,0],[0.5,0],[0.75,0],[1,0],[1,0.25],[1,0.5],[1,0.75],[1,1],[0.75,1],[0.5,1],[0.25,1],[0,1],[0,0.75],[0,0.5],[0,0.25]];outlineConnect=0;html=1;whiteSpace=wrap;fontSize=12;fontStyle=0;container=1;pointerEvents=0;collapsible=0;recursiveResize=0;shape=mxgraph.aws4.groupCenter;grIcon=mxgraph.aws4.group_auto_scaling_group;grStroke=1;fillColor=none;verticalAlign=top;align=center;dashed=1;spacingTop=25;rounded=1;labelBackgroundColor=none;strokeColor=#FFFFFF;fontColor=#FFFFFF;" vertex="1" parent="buKtytDfIhO9UdU7Xj6q-79">
          <mxGeometry x="30" y="30" width="130" height="120" as="geometry" />
        </mxCell>
        <mxCell id="buKtytDfIhO9UdU7Xj6q-81" value="" style="sketch=0;points=[[0,0,0],[0.25,0,0],[0.5,0,0],[0.75,0,0],[1,0,0],[0,1,0],[0.25,1,0],[0.5,1,0],[0.75,1,0],[1,1,0],[0,0.25,0],[0,0.5,0],[0,0.75,0],[1,0.25,0],[1,0.5,0],[1,0.75,0]];outlineConnect=0;dashed=0;verticalLabelPosition=bottom;verticalAlign=top;align=center;html=1;fontSize=12;fontStyle=0;aspect=fixed;shape=mxgraph.aws4.resourceIcon;resIcon=mxgraph.aws4.ec2;rounded=1;labelBackgroundColor=none;fillColor=#182E3E;strokeColor=#FFFFFF;fontColor=#FFFFFF;" vertex="1" parent="buKtytDfIhO9UdU7Xj6q-80">
          <mxGeometry x="10" y="90" width="20" height="20" as="geometry" />
        </mxCell>
        <mxCell id="buKtytDfIhO9UdU7Xj6q-82" value="" style="sketch=0;points=[[0,0,0],[0.25,0,0],[0.5,0,0],[0.75,0,0],[1,0,0],[0,1,0],[0.25,1,0],[0.5,1,0],[0.75,1,0],[1,1,0],[0,0.25,0],[0,0.5,0],[0,0.75,0],[1,0.25,0],[1,0.5,0],[1,0.75,0]];outlineConnect=0;dashed=0;verticalLabelPosition=bottom;verticalAlign=top;align=center;html=1;fontSize=12;fontStyle=0;aspect=fixed;shape=mxgraph.aws4.resourceIcon;resIcon=mxgraph.aws4.ec2;rounded=1;labelBackgroundColor=none;fillColor=#182E3E;strokeColor=#FFFFFF;fontColor=#FFFFFF;" vertex="1" parent="buKtytDfIhO9UdU7Xj6q-80">
          <mxGeometry x="40" y="90" width="20" height="20" as="geometry" />
        </mxCell>
        <mxCell id="buKtytDfIhO9UdU7Xj6q-83" value="" style="sketch=0;points=[[0,0,0],[0.25,0,0],[0.5,0,0],[0.75,0,0],[1,0,0],[0,1,0],[0.25,1,0],[0.5,1,0],[0.75,1,0],[1,1,0],[0,0.25,0],[0,0.5,0],[0,0.75,0],[1,0.25,0],[1,0.5,0],[1,0.75,0]];outlineConnect=0;dashed=0;verticalLabelPosition=bottom;verticalAlign=top;align=center;html=1;fontSize=12;fontStyle=0;aspect=fixed;shape=mxgraph.aws4.resourceIcon;resIcon=mxgraph.aws4.ec2;rounded=1;labelBackgroundColor=none;fillColor=#182E3E;strokeColor=#FFFFFF;fontColor=#FFFFFF;" vertex="1" parent="buKtytDfIhO9UdU7Xj6q-80">
          <mxGeometry x="70" y="90" width="20" height="20" as="geometry" />
        </mxCell>
        <mxCell id="buKtytDfIhO9UdU7Xj6q-84" value="" style="sketch=0;points=[[0,0,0],[0.25,0,0],[0.5,0,0],[0.75,0,0],[1,0,0],[0,1,0],[0.25,1,0],[0.5,1,0],[0.75,1,0],[1,1,0],[0,0.25,0],[0,0.5,0],[0,0.75,0],[1,0.25,0],[1,0.5,0],[1,0.75,0]];outlineConnect=0;dashed=0;verticalLabelPosition=bottom;verticalAlign=top;align=center;html=1;fontSize=12;fontStyle=0;aspect=fixed;shape=mxgraph.aws4.resourceIcon;resIcon=mxgraph.aws4.ec2;rounded=1;labelBackgroundColor=none;fillColor=#182E3E;strokeColor=#FFFFFF;fontColor=#FFFFFF;" vertex="1" parent="buKtytDfIhO9UdU7Xj6q-80">
          <mxGeometry x="100" y="90" width="20" height="20" as="geometry" />
        </mxCell>
        <mxCell id="buKtytDfIhO9UdU7Xj6q-85" value="" style="endArrow=classic;startArrow=classic;html=1;rounded=1;labelBackgroundColor=none;fontColor=default;strokeColor=#FFFFFF;" edge="1" parent="buKtytDfIhO9UdU7Xj6q-80">
          <mxGeometry width="50" height="50" relative="1" as="geometry">
            <mxPoint x="7.5" y="70" as="sourcePoint" />
            <mxPoint x="122.5" y="70" as="targetPoint" />
          </mxGeometry>
        </mxCell>
      </root>
    </mxGraphModel>
  </diagram>
</mxfile>
